name rise44.8762peak52.3436fall86.788.mot
datacolumns 19
datarows 11
range 7.81996500000000 7.83663900000000
endheader
time	ground_force1_vx	ground_force1_vy	ground_force1_vz	ground_force1_px	ground_force1_py	ground_force1_pz	ground_force2_vx	ground_force2_vy	ground_force2_vz	ground_force2_px	ground_force2_py	ground_force2_pz	ground_torque1_x	ground_torque1_y	ground_torque1_z	ground_torque2_x	ground_torque2_y	ground_torque2_z	
7.81996500000000	-8.22163600000000	42.58179700000000	-9.90932500000000	0.25114200000000	0.00000000000000	0.08291600000000	-44.38950800000000	804.00917800000002	-61.34632800000000	0.07467500000000	0.00000000000000	-0.12201000000000	0.00000000000000	-5.07176600000000	0.00000000000000	0.00000000000000	-17.17831400000000	0.00000000000000	
7.82163700000000	-8.92272100000000	50.04240800000000	-11.09635100000000	0.25633800000000	0.00000000000000	0.08395600000000	-45.03077200000000	801.28361399999994	-60.89963200000000	0.07393400000000	0.00000000000000	-0.12187100000000	0.00000000000000	-5.77001900000000	0.00000000000000	0.00000000000000	-17.18067700000000	0.00000000000000	
7.82330000000000	-9.44484400000000	57.63273700000000	-12.15855100000000	0.26102700000000	0.00000000000000	0.08490100000000	-45.68967900000000	798.41226600000005	-60.42692900000000	0.07319300000000	0.00000000000000	-0.12172900000000	0.00000000000000	-6.42112200000000	0.00000000000000	0.00000000000000	-17.18809400000000	0.00000000000000	
7.82496800000000	-9.76625200000000	65.25807500000001	-13.06979000000000	0.26529500000000	0.00000000000000	0.08576700000000	-46.36540100000000	795.39226900000006	-59.92822300000000	0.07245200000000	0.00000000000000	-0.12158300000000	0.00000000000000	-7.00997400000000	0.00000000000000	0.00000000000000	-17.20046800000000	0.00000000000000	
7.82663300000000	-9.87511400000000	72.84600500000001	-13.81314000000000	0.26920700000000	0.00000000000000	0.08656400000000	-47.05699600000000	792.22072800000001	-59.40355500000000	0.07171200000000	0.00000000000000	-0.12143200000000	0.00000000000000	-7.52598500000000	0.00000000000000	0.00000000000000	-17.21767100000000	0.00000000000000	
7.82830400000000	-9.76926100000000	80.34874800000000	-14.38094200000000	0.27281700000000	0.00000000000000	0.08730300000000	-47.76340900000000	788.89472000000001	-58.85300100000000	0.07097300000000	0.00000000000000	-0.12127800000000	0.00000000000000	-7.96325900000000	0.00000000000000	0.00000000000000	-17.23954400000000	0.00000000000000	
7.82997300000000	-9.45516200000000	87.74308200000000	-14.77409400000000	0.27616700000000	0.00000000000000	0.08799200000000	-48.48347300000000	785.41130999999996	-58.27667500000000	0.07023600000000	0.00000000000000	-0.12111900000000	0.00000000000000	-8.32035700000000	0.00000000000000	0.00000000000000	-17.26589500000000	0.00000000000000	
7.83163200000000	-8.94638600000000	95.02824600000000	-15.00076300000000	0.27929300000000	0.00000000000000	0.08863700000000	-49.21590900000000	781.76755300000002	-57.67473000000000	0.06950200000000	0.00000000000000	-0.12095500000000	0.00000000000000	-8.59973900000000	0.00000000000000	0.00000000000000	-17.29650600000000	0.00000000000000	
7.83329800000000	-8.26172700000000	102.22235900000000	-15.07471500000000	0.28222300000000	0.00000000000000	0.08924300000000	-49.95932900000000	777.96051399999999	-57.04736200000000	0.06877200000000	0.00000000000000	-0.12078800000000	0.00000000000000	-8.80697500000000	0.00000000000000	0.00000000000000	-17.33112400000000	0.00000000000000	
7.83496500000000	-7.42323200000000	109.35789100000000	-15.01348800000000	0.28498000000000	0.00000000000000	0.08981400000000	-50.71223600000000	773.98727399999996	-56.39480700000000	0.06804600000000	0.00000000000000	-0.12061600000000	0.00000000000000	-8.94983800000000	0.00000000000000	0.00000000000000	-17.36946800000000	0.00000000000000	
7.83663900000000	-6.45429700000000	116.47674800000000	-14.83655700000000	0.28758400000000	0.00000000000000	0.09035600000000	-51.47303000000000	769.84494500000005	-55.71734400000000	0.06732600000000	0.00000000000000	-0.12043900000000	0.00000000000000	-9.03737600000000	0.00000000000000	0.00000000000000	-17.41122600000000	0.00000000000000	
